<svg width="18" height="18" viewBox="0 0 18 18" fill="none" xmlns="http://www.w3.org/2000/svg">
<path fill-rule="evenodd" clip-rule="evenodd" d="M14.5385 6.53977C14.8482 6.56527 15.0792 6.83602 15.0544 7.14577C15.0499 7.19677 14.6435 12.23 14.4095 14.3413C14.264 15.6515 13.3984 16.4488 12.0919 16.4728C11.0922 16.49 10.1277 16.4998 9.18495 16.4998C8.1687 16.4998 7.17795 16.4885 6.1977 16.4683C4.9437 16.4435 4.07595 15.6305 3.9342 14.3465C3.69795 12.2165 3.2937 7.19602 3.28995 7.14577C3.26445 6.83602 3.49545 6.56453 3.8052 6.53977C4.11045 6.53152 4.38645 6.74603 4.4112 7.05503C4.41359 7.08758 4.57886 9.1378 4.75895 11.1663L4.79512 11.5711C4.88582 12.5794 4.97777 13.5483 5.05245 14.2228C5.1327 14.9525 5.52645 15.329 6.22095 15.3433C8.09595 15.383 10.0092 15.3853 12.0717 15.3478C12.8097 15.3335 13.2087 14.9645 13.2912 14.2175C13.5237 12.122 13.9287 7.10603 13.9332 7.05503C13.9579 6.74603 14.2317 6.53003 14.5385 6.53977ZM10.7591 1.5C11.4475 1.5 12.0528 1.96425 12.2305 2.6295L12.4211 3.57525C12.4826 3.88528 12.7547 4.11169 13.0697 4.11667L15.531 4.11675C15.8415 4.11675 16.0935 4.36875 16.0935 4.67925C16.0935 4.98975 15.8415 5.24175 15.531 5.24175L13.0917 5.24164C13.0879 5.24171 13.0841 5.24175 13.0803 5.24175L13.062 5.241L5.28121 5.24166C5.27517 5.24172 5.26911 5.24175 5.26305 5.24175L5.2515 5.241L2.8125 5.24175C2.502 5.24175 2.25 4.98975 2.25 4.67925C2.25 4.36875 2.502 4.11675 2.8125 4.11675L5.27325 4.116L5.34902 4.1112C5.63123 4.07459 5.86578 3.86025 5.92305 3.57525L6.1053 2.66325C6.29055 1.96425 6.8958 1.5 7.5843 1.5H10.7591ZM10.7591 2.625H7.5843C7.4043 2.625 7.24605 2.74575 7.2003 2.919L7.02555 3.7965C7.00334 3.90765 6.971 4.01476 6.92961 4.11695H11.414C11.3725 4.01476 11.3401 3.90765 11.3178 3.7965L11.1355 2.8845C11.0973 2.74575 10.939 2.625 10.7591 2.625Z" fill="#D62020"/>
</svg>
