<svg width="18" height="18" viewBox="0 0 18 18" fill="none" xmlns="http://www.w3.org/2000/svg">
<path fill-rule="evenodd" clip-rule="evenodd" d="M8.45129 0.766838C8.78718 0.766838 9.05979 1.03945 9.05979 1.37535C9.05979 1.71124 8.78718 1.98386 8.45129 1.98386H5.41767C3.32115 1.98386 1.96702 3.41994 1.96702 5.64221V12.3877C1.96702 14.61 3.32115 16.0461 5.41767 16.0461H12.577C14.6735 16.0461 16.0284 14.61 16.0284 12.3877V9.11963C16.0284 8.78374 16.301 8.51112 16.6369 8.51112C16.9728 8.51112 17.2455 8.78374 17.2455 9.11963V12.3877C17.2455 15.3037 15.3688 17.2631 12.577 17.2631H5.41767C2.62583 17.2631 0.75 15.3037 0.75 12.3877V5.64221C0.75 2.72624 2.62583 0.766838 5.41767 0.766838H8.45129ZM15.5178 1.47969L16.5052 2.46709C16.9863 2.94741 17.2508 3.58594 17.25 4.26584C17.25 4.94575 16.9855 5.58347 16.5052 6.06297L10.4128 12.1554C9.96574 12.6024 9.37021 12.8491 8.73737 12.8491H5.69807C5.53418 12.8491 5.37677 12.7825 5.26238 12.6649C5.14798 12.5481 5.0855 12.3898 5.08956 12.2251L5.16583 9.15906C5.18124 8.54893 5.42708 7.97531 5.85871 7.54286L11.9227 1.47969C12.9142 0.489845 14.5263 0.489845 15.5178 1.47969ZM11.4232 3.69952L6.71955 8.4037C6.50941 8.61384 6.39014 8.89294 6.38284 9.18908L6.32199 11.632H8.73737C9.04568 11.632 9.33452 11.5128 9.55277 11.2945L14.2849 6.56114L11.4232 3.69952ZM12.7827 2.34052L12.2833 2.83869L15.1449 5.70111L15.6452 5.20214C15.8951 4.95224 16.033 4.61959 16.033 4.26584C16.033 3.91129 15.8951 3.57782 15.6452 3.32793L14.6578 2.34052C14.1409 1.82532 13.3004 1.82532 12.7827 2.34052Z" fill="#0E5EFA"/>
</svg>
