<svg width="42" height="41" viewBox="0 0 42 41" fill="none" xmlns="http://www.w3.org/2000/svg">
<g filter="url(#filter0_d_649_569)">
<rect x="6" y="2" width="30" height="30" rx="5" fill="#0E5EFA"/>
</g>
<path d="M20.5037 9.5C22.5137 9.5 24.1661 11.0794 24.25 13.0807H24.2304C24.2328 13.1389 24.2216 13.1968 24.1977 13.25H24.3148C25.2276 13.25 26.1834 13.8826 26.5666 15.4099L26.6083 15.5901L27.1849 20.2361C27.5999 23.1993 25.9787 24.4455 23.7672 24.4982L23.6189 24.5H17.4014C15.1538 24.5 13.4219 23.681 13.8027 20.4377L13.8287 20.2361L14.412 15.5901C14.6996 13.9454 15.6652 13.2967 16.5956 13.2524L16.6988 13.25H16.7574C16.7475 13.194 16.7475 13.1367 16.7574 13.0807C16.8413 11.0794 18.4937 9.5 20.5037 9.5ZM18.3227 15.747C17.9567 15.747 17.6599 16.0524 17.6599 16.4292C17.6599 16.806 17.9567 17.1114 18.3227 17.1114C18.6888 17.1114 18.9856 16.806 18.9856 16.4292L18.9804 16.3436C18.9395 16.0072 18.6607 15.747 18.3227 15.747ZM22.6644 15.747C22.2983 15.747 22.0015 16.0524 22.0015 16.4292C22.0015 16.806 22.2983 17.1114 22.6644 17.1114C23.0304 17.1114 23.3272 16.806 23.3272 16.4292C23.3272 16.0524 23.0304 15.747 22.6644 15.747ZM20.4743 10.4768C19.0312 10.4768 17.8614 11.6426 17.8614 13.0807C17.8713 13.1367 17.8713 13.194 17.8614 13.25H23.1199C23.099 13.196 23.088 13.1386 23.0872 13.0807C23.0872 11.6426 21.9174 10.4768 20.4743 10.4768Z" fill="white"/>
<defs>
<filter id="filter0_d_649_569" x="0.5" y="-2.38419e-07" width="41" height="41" filterUnits="userSpaceOnUse" color-interpolation-filters="sRGB">
<feFlood flood-opacity="0" result="BackgroundImageFix"/>
<feColorMatrix in="SourceAlpha" type="matrix" values="0 0 0 0 0 0 0 0 0 0 0 0 0 0 0 0 0 0 127 0" result="hardAlpha"/>
<feOffset dy="3.5"/>
<feGaussianBlur stdDeviation="2.75"/>
<feColorMatrix type="matrix" values="0 0 0 0 0 0 0 0 0 0 0 0 0 0 0 0 0 0 0.02 0"/>
<feBlend mode="normal" in2="BackgroundImageFix" result="effect1_dropShadow_649_569"/>
<feBlend mode="normal" in="SourceGraphic" in2="effect1_dropShadow_649_569" result="shape"/>
</filter>
</defs>
</svg>
