<svg width="42" height="41" viewBox="0 0 42 41" fill="none" xmlns="http://www.w3.org/2000/svg">
<g filter="url(#filter0_d_649_332)">
<rect x="6" y="2" width="30" height="30" rx="5" fill="#F9F9F9"/>
</g>
<path d="M23.5256 10.1443H12.6685C12.3484 10.1443 12.097 10.3957 12.097 10.7157V17.5729C12.097 17.8871 12.3484 18.1443 12.6685 18.1443H23.5256C23.8399 18.1443 24.097 17.8871 24.097 17.5729V10.7157C24.097 10.3957 23.84 10.1443 23.5256 10.1443Z" fill="#4D4E4E"/>
<path d="M12.0913 21.0014C12.0913 21.3156 12.3485 21.5728 12.6627 21.5728H13.2799C13.5199 20.3785 14.5027 19.4414 15.7256 19.2871H12.6685C12.4627 19.2871 12.2742 19.2528 12.0913 19.1842V21.0014Z" fill="#4D4E4E"/>
<path d="M28.6284 21.5729H29.337C29.6513 21.5729 29.9084 21.3157 29.9084 21.0015V15.9958C29.9084 15.0986 27.7199 13.0015 26.5199 13.0015H25.2399V17.5729C25.2399 18.5157 24.4684 19.2872 23.5256 19.2872H16.4684C17.6913 19.4415 18.6742 20.3786 18.9141 21.5729H22.9941C23.257 20.2586 24.417 19.2586 25.8113 19.2586C27.1999 19.2586 28.3656 20.2586 28.6284 21.5729ZM26.177 14.4071C29.1027 14.2643 28.9828 17.2871 28.9828 17.2871H26.177V14.4071Z" fill="#4D4E4E"/>
<path d="M25.809 23.8554C26.7621 23.8554 27.5347 23.0827 27.5347 22.1296C27.5347 21.1766 26.7621 20.4039 25.809 20.4039C24.8559 20.4039 24.0833 21.1766 24.0833 22.1296C24.0833 23.0827 24.8559 23.8554 25.809 23.8554Z" fill="#4D4E4E"/>
<path d="M16.0947 23.8554C17.0478 23.8554 17.8204 23.0827 17.8204 22.1296C17.8204 21.1766 17.0478 20.4039 16.0947 20.4039C15.1416 20.4039 14.369 21.1766 14.369 22.1296C14.369 23.0827 15.1416 23.8554 16.0947 23.8554Z" fill="#4D4E4E"/>
<defs>
<filter id="filter0_d_649_332" x="0.5" y="-2.38419e-07" width="41" height="41" filterUnits="userSpaceOnUse" color-interpolation-filters="sRGB">
<feFlood flood-opacity="0" result="BackgroundImageFix"/>
<feColorMatrix in="SourceAlpha" type="matrix" values="0 0 0 0 0 0 0 0 0 0 0 0 0 0 0 0 0 0 127 0" result="hardAlpha"/>
<feOffset dy="3.5"/>
<feGaussianBlur stdDeviation="2.75"/>
<feColorMatrix type="matrix" values="0 0 0 0 0 0 0 0 0 0 0 0 0 0 0 0 0 0 0.02 0"/>
<feBlend mode="normal" in2="BackgroundImageFix" result="effect1_dropShadow_649_332"/>
<feBlend mode="normal" in="SourceGraphic" in2="effect1_dropShadow_649_332" result="shape"/>
</filter>
</defs>
</svg>
