<svg width="42" height="41" viewBox="0 0 42 41" fill="none" xmlns="http://www.w3.org/2000/svg">
<g filter="url(#filter0_d_649_649)">
<rect x="6" y="2" width="30" height="30" rx="5" fill="#0E5EFA"/>
</g>
<path d="M21.5158 9.58337C26.0124 9.58337 29.4166 13.2702 29.4166 17.4881C29.4166 22.3801 25.4266 25.4167 21.4999 25.4167C20.2016 25.4167 18.7608 25.0679 17.6049 24.386C17.2012 24.1402 16.8608 23.9579 16.4253 24.1006L14.8262 24.5763C14.4224 24.7031 14.0583 24.386 14.177 23.9579L14.7074 22.1819C14.7945 21.9361 14.7787 21.6744 14.652 21.4683C13.9712 20.2156 13.5833 18.8439 13.5833 17.5119C13.5833 13.3415 16.9162 9.58337 21.5158 9.58337ZM25.1337 16.505C24.5716 16.505 24.1203 16.9569 24.1203 17.5199C24.1203 18.0749 24.5716 18.5347 25.1337 18.5347C25.6958 18.5347 26.147 18.0749 26.147 17.5199C26.147 16.9569 25.6958 16.505 25.1337 16.505ZM21.4841 16.505C20.9299 16.4971 20.4708 16.9569 20.4708 17.5119C20.4708 18.0749 20.922 18.5268 21.4841 18.5347C22.0462 18.5347 22.4974 18.0749 22.4974 17.5199C22.4974 16.9569 22.0462 16.505 21.4841 16.505ZM17.8345 16.505C17.2724 16.505 16.8212 16.9569 16.8212 17.5199C16.8212 18.0749 17.2803 18.5347 17.8345 18.5347C18.3966 18.5268 18.8478 18.0749 18.8478 17.5199C18.8478 16.9569 18.3966 16.505 17.8345 16.505Z" fill="white"/>
<defs>
<filter id="filter0_d_649_649" x="0.5" y="-2.38419e-07" width="41" height="41" filterUnits="userSpaceOnUse" color-interpolation-filters="sRGB">
<feFlood flood-opacity="0" result="BackgroundImageFix"/>
<feColorMatrix in="SourceAlpha" type="matrix" values="0 0 0 0 0 0 0 0 0 0 0 0 0 0 0 0 0 0 127 0" result="hardAlpha"/>
<feOffset dy="3.5"/>
<feGaussianBlur stdDeviation="2.75"/>
<feColorMatrix type="matrix" values="0 0 0 0 0 0 0 0 0 0 0 0 0 0 0 0 0 0 0.02 0"/>
<feBlend mode="normal" in2="BackgroundImageFix" result="effect1_dropShadow_649_649"/>
<feBlend mode="normal" in="SourceGraphic" in2="effect1_dropShadow_649_649" result="shape"/>
</filter>
</defs>
</svg>
