<svg width="42" height="41" viewBox="0 0 42 41" fill="none" xmlns="http://www.w3.org/2000/svg">
<g filter="url(#filter0_d_649_348)">
<rect x="6" y="2" width="30" height="30" rx="5" fill="#F9F9F9"/>
</g>
<path d="M20.4999 19.7482C23.5731 19.7482 26.1666 20.2475 26.1666 22.1742C26.1666 24.1016 23.5561 24.5833 20.4999 24.5833C17.4274 24.5833 14.8333 24.0839 14.8333 22.1572C14.8333 20.2298 17.4437 19.7482 20.4999 19.7482ZM20.4999 10.4166C22.5818 10.4166 24.2498 12.0841 24.2498 14.1645C24.2498 16.2449 22.5818 17.913 20.4999 17.913C18.4188 17.913 16.75 16.2449 16.75 14.1645C16.75 12.0841 18.4188 10.4166 20.4999 10.4166Z" fill="#4D4E4E"/>
<defs>
<filter id="filter0_d_649_348" x="0.5" y="-2.38419e-07" width="41" height="41" filterUnits="userSpaceOnUse" color-interpolation-filters="sRGB">
<feFlood flood-opacity="0" result="BackgroundImageFix"/>
<feColorMatrix in="SourceAlpha" type="matrix" values="0 0 0 0 0 0 0 0 0 0 0 0 0 0 0 0 0 0 127 0" result="hardAlpha"/>
<feOffset dy="3.5"/>
<feGaussianBlur stdDeviation="2.75"/>
<feColorMatrix type="matrix" values="0 0 0 0 0 0 0 0 0 0 0 0 0 0 0 0 0 0 0.02 0"/>
<feBlend mode="normal" in2="BackgroundImageFix" result="effect1_dropShadow_649_348"/>
<feBlend mode="normal" in="SourceGraphic" in2="effect1_dropShadow_649_348" result="shape"/>
</filter>
</defs>
</svg>
