<svg width="42" height="41" viewBox="0 0 42 41" fill="none" xmlns="http://www.w3.org/2000/svg">
<g filter="url(#filter0_d_649_633)">
<rect x="6" y="2" width="30" height="30" rx="5" fill="#0E5EFA"/>
</g>
<path d="M24.3382 9C27.2698 9 29 10.6869 29 13.5745H25.4036V13.604C23.7344 13.604 22.3813 14.9232 22.3813 16.5506C22.3813 18.1779 23.7344 19.4971 25.4036 19.4971H29V19.7623C29 22.6131 27.2698 24.3 24.3382 24.3H16.6618C13.7302 24.3 12 22.6131 12 19.7623V13.5377C12 10.6869 13.7302 9 16.6618 9H24.3382ZM28.3653 14.8416C28.7159 14.8416 29 15.1186 29 15.4603V17.6113C28.9959 17.9514 28.7141 18.2261 28.3653 18.2301H25.4716C24.6266 18.2412 23.8877 17.6771 23.696 16.8747C23.6 16.3765 23.7348 15.8625 24.0641 15.4704C24.3935 15.0782 24.8837 14.8481 25.4036 14.8416H28.3653ZM25.8116 15.836H25.532C25.3604 15.834 25.1951 15.8991 25.073 16.0168C24.9509 16.1344 24.8822 16.2948 24.8822 16.4622C24.8822 16.8132 25.1719 17.099 25.532 17.103H25.8116C26.1704 17.103 26.4613 16.8194 26.4613 16.4695C26.4613 16.1196 26.1704 15.836 25.8116 15.836ZM20.8249 12.3075H16.0271C15.6712 12.3075 15.3815 12.5867 15.3773 12.9337C15.3773 13.2847 15.667 13.5705 16.0271 13.5745H20.8249C21.1838 13.5745 21.4747 13.2909 21.4747 12.941C21.4747 12.5911 21.1838 12.3075 20.8249 12.3075Z" fill="white"/>
<defs>
<filter id="filter0_d_649_633" x="0.5" y="-2.38419e-07" width="41" height="41" filterUnits="userSpaceOnUse" color-interpolation-filters="sRGB">
<feFlood flood-opacity="0" result="BackgroundImageFix"/>
<feColorMatrix in="SourceAlpha" type="matrix" values="0 0 0 0 0 0 0 0 0 0 0 0 0 0 0 0 0 0 127 0" result="hardAlpha"/>
<feOffset dy="3.5"/>
<feGaussianBlur stdDeviation="2.75"/>
<feColorMatrix type="matrix" values="0 0 0 0 0 0 0 0 0 0 0 0 0 0 0 0 0 0 0.02 0"/>
<feBlend mode="normal" in2="BackgroundImageFix" result="effect1_dropShadow_649_633"/>
<feBlend mode="normal" in="SourceGraphic" in2="effect1_dropShadow_649_633" result="shape"/>
</filter>
</defs>
</svg>
