<svg width="121" height="34" viewBox="0 0 121 34" fill="none" xmlns="http://www.w3.org/2000/svg">
<path d="M41.784 24L49.272 7.2L53.112 7.2L60.624 24H56.544L50.4 9.168H51.936L45.768 24H41.784ZM45.528 20.4L46.56 17.448L55.2 17.448L56.256 20.4L45.528 20.4ZM62.487 24V11.088H66.063V14.736L65.559 13.68C65.943 12.768 66.559 12.08 67.407 11.616C68.255 11.136 69.287 10.896 70.503 10.896V14.352C70.343 14.336 70.199 14.328 70.071 14.328C69.943 14.312 69.807 14.304 69.663 14.304C68.639 14.304 67.807 14.6 67.167 15.192C66.543 15.768 66.231 16.672 66.231 17.904V24H62.487ZM73.1132 24V11.088H76.8572V24H73.1132ZM74.9852 9.288C74.2972 9.288 73.7372 9.088 73.3052 8.688C72.8732 8.288 72.6572 7.792 72.6572 7.2C72.6572 6.608 72.8732 6.112 73.3052 5.712C73.7372 5.312 74.2972 5.112 74.9852 5.112C75.6732 5.112 76.2332 5.304 76.6652 5.688C77.0972 6.056 77.3132 6.536 77.3132 7.128C77.3132 7.752 77.0972 8.272 76.6652 8.688C76.2492 9.088 75.6892 9.288 74.9852 9.288ZM97.2519 10.896C98.2759 10.896 99.1799 11.104 99.9639 11.52C100.764 11.92 101.388 12.544 101.836 13.392C102.3 14.224 102.532 15.296 102.532 16.608V24L98.7879 24V17.184C98.7879 16.144 98.5719 15.376 98.1399 14.88C97.7079 14.384 97.0999 14.136 96.3159 14.136C95.7719 14.136 95.2839 14.264 94.8519 14.52C94.4199 14.76 94.0839 15.128 93.8439 15.624C93.6039 16.12 93.4839 16.752 93.4839 17.52V24H89.7399V17.184C89.7399 16.144 89.5239 15.376 89.0919 14.88C88.6759 14.384 88.0759 14.136 87.2919 14.136C86.7479 14.136 86.2599 14.264 85.8279 14.52C85.3959 14.76 85.0599 15.128 84.8199 15.624C84.5799 16.12 84.4599 16.752 84.4599 17.52V24H80.7159V11.088L84.2919 11.088V14.616L83.6199 13.584C84.0679 12.704 84.6999 12.04 85.5159 11.592C86.3479 11.128 87.2919 10.896 88.3479 10.896C89.5319 10.896 90.5639 11.2 91.4439 11.808C92.3399 12.4 92.9319 13.312 93.2199 14.544L91.8999 14.184C92.3319 13.176 93.0199 12.376 93.9639 11.784C94.9239 11.192 96.0199 10.896 97.2519 10.896ZM114.192 24V21.48L113.952 20.928V16.416C113.952 15.616 113.704 14.992 113.208 14.544C112.728 14.096 111.984 13.872 110.976 13.872C110.288 13.872 109.608 13.984 108.936 14.208C108.28 14.416 107.72 14.704 107.256 15.072L105.912 12.456C106.616 11.96 107.464 11.576 108.456 11.304C109.448 11.032 110.456 10.896 111.48 10.896C113.448 10.896 114.976 11.36 116.064 12.288C117.152 13.216 117.696 14.664 117.696 16.632V24H114.192ZM110.256 24.192C109.248 24.192 108.384 24.024 107.664 23.688C106.944 23.336 106.392 22.864 106.008 22.272C105.624 21.68 105.432 21.016 105.432 20.28C105.432 19.512 105.616 18.84 105.984 18.264C106.368 17.688 106.968 17.24 107.784 16.92C108.6 16.584 109.664 16.416 110.976 16.416H114.408V18.6H111.384C110.504 18.6 109.896 18.744 109.56 19.032C109.24 19.32 109.08 19.68 109.08 20.112C109.08 20.592 109.264 20.976 109.632 21.264C110.016 21.536 110.536 21.672 111.192 21.672C111.816 21.672 112.376 21.528 112.872 21.24C113.368 20.936 113.728 20.496 113.952 19.92L114.528 21.648C114.256 22.48 113.76 23.112 113.04 23.544C112.32 23.976 111.392 24.192 110.256 24.192Z" fill="#1A1E29"/>
<rect y="1" width="35" height="33" rx="5" fill="#0F63FD"/>
<rect x="18.9269" y="9.48572" width="5.67567" height="15.0857" rx="2.83784" fill="white"/>
<rect width="4.71964" height="10.3936" rx="2.35982" transform="matrix(-0.589886 0.807487 -0.809319 -0.58737 17.8174 22.1906)" fill="white"/>
</svg>
