<svg width="42" height="41" viewBox="0 0 42 41" fill="none" xmlns="http://www.w3.org/2000/svg">
<g filter="url(#filter0_d_649_637)">
<rect x="6" y="2" width="30" height="30" rx="5" fill="#0E5EFA"/>
</g>
<path d="M12.7332 19.6875C12.5161 20.0639 12.3885 20.4852 12.3603 20.9188C12.332 21.3524 12.4038 21.7866 12.5702 22.188C12.7366 22.5894 12.993 22.9471 13.3197 23.2336C13.6464 23.52 14.0346 23.7275 14.4543 23.8399C14.874 23.9524 15.314 23.9668 15.7401 23.882C16.1663 23.7973 16.5672 23.6157 16.912 23.3513C17.2568 23.0868 17.5361 22.7466 17.7284 22.357C17.9206 21.9673 18.0207 21.5387 18.0209 21.1042C18.0212 20.4803 17.8155 19.8737 17.4357 19.3787C17.056 18.8836 16.5235 18.5278 15.9208 18.3663C15.3182 18.2048 14.6791 18.2468 14.1027 18.4857C13.5263 18.7246 13.0449 19.1471 12.7332 19.6875Z" fill="white"/>
<path d="M16.9868 12.3208L13.7993 17.8458C14.3048 17.6303 14.8536 17.5353 15.4021 17.5685C15.9507 17.6016 16.484 17.762 16.9598 18.0369C17.4357 18.3117 17.8411 18.6936 18.1439 19.1522C18.4467 19.6108 18.6386 20.1335 18.7045 20.6791L20.0929 18.2708C17.4579 13.7162 17.0754 13.2806 16.9868 12.3208Z" fill="white"/>
<path d="M28.2669 19.6875C28.0863 19.3829 22.9084 10.3835 22.8057 10.2525C22.3794 9.65797 21.7398 9.25136 21.0205 9.11774C20.3013 8.98413 19.5583 9.13387 18.9469 9.53563C18.3356 9.93738 17.9034 10.56 17.7407 11.2732C17.578 11.9864 17.6974 12.7349 18.074 13.3621C18.0386 13.3621 17.8969 13.0575 23.3582 22.5208C23.5442 22.8431 23.7919 23.1256 24.0871 23.3522C24.3824 23.5788 24.7193 23.745 25.0788 23.8414C25.4382 23.9378 25.8132 23.9624 26.1821 23.9138C26.5511 23.8653 26.9069 23.7446 27.2292 23.5585C27.5515 23.3725 27.834 23.1248 28.0606 22.8296C28.2872 22.5343 28.4534 22.1974 28.5498 21.8379C28.6461 21.4785 28.6708 21.1035 28.6222 20.7346C28.5737 20.3656 28.453 20.0098 28.2669 19.6875Z" fill="white"/>
<defs>
<filter id="filter0_d_649_637" x="0.5" y="-2.38419e-07" width="41" height="41" filterUnits="userSpaceOnUse" color-interpolation-filters="sRGB">
<feFlood flood-opacity="0" result="BackgroundImageFix"/>
<feColorMatrix in="SourceAlpha" type="matrix" values="0 0 0 0 0 0 0 0 0 0 0 0 0 0 0 0 0 0 127 0" result="hardAlpha"/>
<feOffset dy="3.5"/>
<feGaussianBlur stdDeviation="2.75"/>
<feColorMatrix type="matrix" values="0 0 0 0 0 0 0 0 0 0 0 0 0 0 0 0 0 0 0.02 0"/>
<feBlend mode="normal" in2="BackgroundImageFix" result="effect1_dropShadow_649_637"/>
<feBlend mode="normal" in="SourceGraphic" in2="effect1_dropShadow_649_637" result="shape"/>
</filter>
</defs>
</svg>
