<svg width="42" height="41" viewBox="0 0 42 41" fill="none" xmlns="http://www.w3.org/2000/svg">
<g filter="url(#filter0_d_649_551)">
<rect x="6" y="2" width="30" height="30" rx="5" fill="#F9F9F9"/>
</g>
<path d="M26.8854 17.1785C26.5122 16.8053 26.5122 16.1946 26.8854 15.8214L27.8761 14.8307C28.894 13.8196 28.894 12.1707 27.8761 11.1596C27.3943 10.6643 26.7361 10.3928 26.044 10.3928H14.9561C13.5175 10.3928 12.3572 11.5532 12.3572 12.9918C12.3572 13.6839 12.6286 14.3421 13.1172 14.8307L14.1147 15.8214C14.4879 16.1946 14.4879 16.8053 14.1147 17.1785L13.124 18.1693C12.1061 19.1803 12.1061 20.8293 13.124 21.8403C13.6057 22.3357 14.264 22.6071 14.9561 22.6071H26.044C27.4757 22.6071 28.6429 21.4468 28.6429 20.0082C28.6429 19.316 28.3715 18.6578 27.8829 18.1693L26.8854 17.1785ZM18.4575 13.7857H18.4643C18.8375 13.7857 19.1429 14.091 19.1361 14.471C19.1361 14.8443 18.8307 15.1496 18.4507 15.1428C18.0707 15.136 17.7722 14.8375 17.779 14.4575C17.7857 14.091 18.0911 13.7857 18.4575 13.7857ZM22.5357 19.2143C22.1625 19.2143 21.8572 18.9157 21.8572 18.5425C21.8572 18.1693 22.1557 17.8639 22.529 17.8571H22.5357C22.909 17.8571 23.2143 18.1625 23.2143 18.5357C23.2143 18.9089 22.909 19.2143 22.5357 19.2143ZM23.0243 14.9393L18.9393 19.0243C18.6679 19.2821 18.2404 19.2753 17.9757 19.0107C17.7179 18.746 17.7179 18.3321 17.9757 18.0675L22.0607 13.9825C22.3322 13.7246 22.7597 13.7314 23.0243 13.996C23.2754 14.2539 23.2754 14.6746 23.0243 14.9393Z" fill="#4D4E4E"/>
<defs>
<filter id="filter0_d_649_551" x="0.5" y="-2.38419e-07" width="41" height="41" filterUnits="userSpaceOnUse" color-interpolation-filters="sRGB">
<feFlood flood-opacity="0" result="BackgroundImageFix"/>
<feColorMatrix in="SourceAlpha" type="matrix" values="0 0 0 0 0 0 0 0 0 0 0 0 0 0 0 0 0 0 127 0" result="hardAlpha"/>
<feOffset dy="3.5"/>
<feGaussianBlur stdDeviation="2.75"/>
<feColorMatrix type="matrix" values="0 0 0 0 0 0 0 0 0 0 0 0 0 0 0 0 0 0 0.02 0"/>
<feBlend mode="normal" in2="BackgroundImageFix" result="effect1_dropShadow_649_551"/>
<feBlend mode="normal" in="SourceGraphic" in2="effect1_dropShadow_649_551" result="shape"/>
</filter>
</defs>
</svg>
