<svg width="42" height="41" viewBox="0 0 42 41" fill="none" xmlns="http://www.w3.org/2000/svg">
<g filter="url(#filter0_d_649_655)">
<rect x="6" y="2" width="30" height="30" rx="5" fill="#0E5EFA"/>
</g>
<path d="M21.0676 8.58337C21.6663 8.58337 22.2084 8.91587 22.5077 9.40671C22.6534 9.64421 22.7505 9.93712 22.7262 10.2459C22.71 10.4834 22.7828 10.7209 22.9123 10.9425C23.3249 11.6155 24.2391 11.8688 24.9511 11.4888C25.752 11.0296 26.7634 11.3067 27.2245 12.0905L27.7666 13.0246C28.2358 13.8084 27.9769 14.8138 27.1679 15.265C26.4802 15.6688 26.2375 16.5634 26.6501 17.2442C26.7795 17.458 26.9252 17.64 27.1517 17.7509C27.4349 17.9013 27.6533 18.1388 27.807 18.3763C28.1064 18.8671 28.0821 19.4688 27.7908 19.9992L27.2245 20.9492C26.9252 21.4559 26.3669 21.7725 25.7925 21.7725C25.5093 21.7725 25.1938 21.6934 24.9349 21.535C24.7245 21.4005 24.4818 21.353 24.2229 21.353C23.422 21.353 22.7505 22.01 22.7262 22.7938C22.7262 23.7042 21.9819 24.4167 21.0515 24.4167H19.9512C19.0127 24.4167 18.2683 23.7042 18.2683 22.7938C18.2521 22.01 17.5806 21.353 16.7797 21.353C16.5127 21.353 16.27 21.4005 16.0677 21.535C15.8088 21.6934 15.4852 21.7725 15.2101 21.7725C14.6276 21.7725 14.0694 21.4559 13.77 20.9492L13.2118 19.9992C12.9124 19.4846 12.8962 18.8671 13.1956 18.3763C13.325 18.1388 13.5678 17.9013 13.8428 17.7509C14.0694 17.64 14.215 17.458 14.3525 17.2442C14.7571 16.5634 14.5143 15.6688 13.8266 15.265C13.0257 14.8138 12.7668 13.8084 13.228 13.0246L13.77 12.0905C14.2393 11.3067 15.2425 11.0296 16.0515 11.4888C16.7554 11.8688 17.6696 11.6155 18.0822 10.9425C18.2117 10.7209 18.2845 10.4834 18.2683 10.2459C18.2521 9.93712 18.3411 9.64421 18.4949 9.40671C18.7942 8.91587 19.3363 8.59921 19.9269 8.58337H21.0676ZM20.5094 14.2675C19.2392 14.2675 18.2117 15.265 18.2117 16.508C18.2117 17.7509 19.2392 18.7405 20.5094 18.7405C21.7796 18.7405 22.7828 17.7509 22.7828 16.508C22.7828 15.265 21.7796 14.2675 20.5094 14.2675Z" fill="white"/>
<defs>
<filter id="filter0_d_649_655" x="0.5" y="-2.38419e-07" width="41" height="41" filterUnits="userSpaceOnUse" color-interpolation-filters="sRGB">
<feFlood flood-opacity="0" result="BackgroundImageFix"/>
<feColorMatrix in="SourceAlpha" type="matrix" values="0 0 0 0 0 0 0 0 0 0 0 0 0 0 0 0 0 0 127 0" result="hardAlpha"/>
<feOffset dy="3.5"/>
<feGaussianBlur stdDeviation="2.75"/>
<feColorMatrix type="matrix" values="0 0 0 0 0 0 0 0 0 0 0 0 0 0 0 0 0 0 0.02 0"/>
<feBlend mode="normal" in2="BackgroundImageFix" result="effect1_dropShadow_649_655"/>
<feBlend mode="normal" in="SourceGraphic" in2="effect1_dropShadow_649_655" result="shape"/>
</filter>
</defs>
</svg>
