<svg width="42" height="41" viewBox="0 0 42 41" fill="none" xmlns="http://www.w3.org/2000/svg">
<g filter="url(#filter0_d_649_575)">
<rect x="6" y="2" width="30" height="30" rx="5" fill="#0E5EFA"/>
</g>
<g clip-path="url(#clip0_649_575)">
<path d="M27.9974 14.6666H13.9999V15.25C13.9999 15.5594 14.1228 15.8561 14.3416 16.0749C14.5604 16.2937 14.8571 16.4166 15.1665 16.4166H16.9165C17.226 16.4166 17.5227 16.2937 17.7415 16.0749C17.9603 15.8561 18.0832 15.5594 18.0832 15.25C18.0832 15.5594 18.2061 15.8561 18.4249 16.0749C18.6437 16.2937 18.9405 16.4166 19.2499 16.4166H22.7499C23.0593 16.4166 23.356 16.2937 23.5748 16.0749C23.7936 15.8561 23.9165 15.5594 23.9165 15.25C23.9165 15.5594 24.0395 15.8561 24.2583 16.0749C24.477 16.2937 24.7738 16.4166 25.0832 16.4166H26.8332C27.1426 16.4166 27.4394 16.2937 27.6582 16.0749C27.877 15.8561 27.9999 15.5594 27.9999 15.25V14.6666H27.9974Z" fill="white"/>
<path d="M27.8566 14.0833L26.8108 10.4229C26.776 10.3011 26.7024 10.1939 26.6012 10.1176C26.5 10.0413 26.3767 9.99999 26.2499 10H23.5781L24.3948 14.0833H27.8566Z" fill="white"/>
<path d="M18.4216 10H15.7498C15.6231 9.99999 15.4998 10.0413 15.3986 10.1176C15.2974 10.1939 15.2238 10.3011 15.189 10.4229L14.1432 14.0833H17.605L18.4216 10Z" fill="white"/>
<path d="M22.3883 10H19.6113L18.7947 14.0833H23.205L22.3883 10Z" fill="white"/>
<path d="M25.0833 17C24.6525 17.0004 24.2369 16.8413 23.9166 16.5533C23.5962 16.8413 23.1806 17.0004 22.7499 17H19.2499C18.8192 17.0004 18.4036 16.8413 18.0833 16.5533C17.7629 16.8413 17.3473 17.0004 16.9166 17H15.1666C14.9677 16.9996 14.7704 16.9651 14.5833 16.8979V23.4167C14.5833 23.5714 14.6447 23.7198 14.7541 23.8292C14.8635 23.9386 15.0119 24 15.1666 24H16.3333V18.75C16.3333 18.5953 16.3947 18.4469 16.5041 18.3376C16.6135 18.2282 16.7619 18.1667 16.9166 18.1667H19.8333C19.988 18.1667 20.1363 18.2282 20.2457 18.3376C20.3551 18.4469 20.4166 18.5953 20.4166 18.75V24H26.8333C26.988 24 27.1363 23.9386 27.2457 23.8292C27.3551 23.7198 27.4166 23.5714 27.4166 23.4167V16.8979C27.2294 16.9651 27.0321 16.9996 26.8333 17H25.0833ZM25.6666 20.5C25.6666 20.6547 25.6051 20.8031 25.4957 20.9125C25.3863 21.0219 25.238 21.0834 25.0833 21.0834H22.1666C22.0119 21.0834 21.8635 21.0219 21.7541 20.9125C21.6447 20.8031 21.5833 20.6547 21.5833 20.5V18.75C21.5833 18.5953 21.6447 18.4469 21.7541 18.3376C21.8635 18.2282 22.0119 18.1667 22.1666 18.1667H25.0833C25.238 18.1667 25.3863 18.2282 25.4957 18.3376C25.6051 18.4469 25.6666 18.5953 25.6666 18.75V20.5Z" fill="white"/>
</g>
<defs>
<filter id="filter0_d_649_575" x="0.5" y="-2.38419e-07" width="41" height="41" filterUnits="userSpaceOnUse" color-interpolation-filters="sRGB">
<feFlood flood-opacity="0" result="BackgroundImageFix"/>
<feColorMatrix in="SourceAlpha" type="matrix" values="0 0 0 0 0 0 0 0 0 0 0 0 0 0 0 0 0 0 127 0" result="hardAlpha"/>
<feOffset dy="3.5"/>
<feGaussianBlur stdDeviation="2.75"/>
<feColorMatrix type="matrix" values="0 0 0 0 0 0 0 0 0 0 0 0 0 0 0 0 0 0 0.02 0"/>
<feBlend mode="normal" in2="BackgroundImageFix" result="effect1_dropShadow_649_575"/>
<feBlend mode="normal" in="SourceGraphic" in2="effect1_dropShadow_649_575" result="shape"/>
</filter>
<clipPath id="clip0_649_575">
<rect width="14" height="14" fill="white" transform="translate(13.9999 10)"/>
</clipPath>
</defs>
</svg>
